<?xml version="1.0" encoding="UTF-8"?>
<svg version="1.1" xmlns="http://www.w3.org/2000/svg" width="184" height="109">
<path d="M0 0 C3.43020128 2.84633723 5.80804154 4.9828627 6.23828125 9.50390625 C6.49699027 20.16544123 3.37706648 26.67438543 -3 35 C-5.86724686 34.42655063 -6.8614515 34.1385485 -9 32 C-8.9765625 29.6171875 -8.9765625 29.6171875 -8.625 26.875 C-8.51414062 25.96492188 -8.40328125 25.05484375 -8.2890625 24.1171875 C-8.19367188 23.41851562 -8.09828125 22.71984375 -8 22 C-8.928125 21.608125 -9.85625 21.21625 -10.8125 20.8125 C-14.34369037 18.80456822 -15.47644365 17.72424885 -17 14 C-17.40359922 10.23307391 -17.31158806 7.76165971 -15.875 4.25 C-11.54197728 -0.94962726 -6.26401745 -2.15245044 0 0 Z M-12 4 C-14.42520546 6.42520546 -14.68564441 7.62067741 -15 11 C-13.91448505 15.45061131 -11.81707448 17.5461664 -8 20 C-6.68 20 -5.36 20 -4 20 C-4.66 23.63 -5.32 27.26 -6 31 C-2.89502283 31.34789761 -2.89502283 31.34789761 -1 29.0625 C3.09611025 22.79033118 4.74468008 16.44680079 4 9 C2.23512539 4.82003382 0.07861587 2.93734254 -4 1 C-7.61656862 1 -9.0319615 2.02130767 -12 4 Z " fill="#F3AD98" transform="translate(78,40)"/>
<path d="M0 0 C3.761254 2.97765942 5.63312089 5.23792441 6.2734375 10.05859375 C6.61166092 17.98082704 4.45662573 25.52507101 -0.4453125 31.87109375 C-1.8125 33.25 -1.8125 33.25 -4 35 C-7.16115776 33.63016497 -7.9927092 33.0109362 -10 30 C-9.5390625 27.95703125 -9.5390625 27.95703125 -8.625 25.8125 C-8.32851562 25.09707031 -8.03203125 24.38164063 -7.7265625 23.64453125 C-7.48679687 23.10183594 -7.24703125 22.55914062 -7 22 C-7.9075 21.773125 -8.815 21.54625 -9.75 21.3125 C-13.61495869 19.7516513 -14.95332572 18.62103911 -17 15 C-17.62391938 10.08663491 -17.53263057 8.0272161 -15.25 3.625 C-10.80659075 -1.55897746 -6.36531178 -1.78137959 0 0 Z M-13 4 C-15.17222379 6.64444635 -14.99893321 8.02987018 -14.875 11.5 C-13.90942573 15.36229709 -13.14488124 16.64133907 -10 19 C-7.36777038 20.25436187 -7.36777038 20.25436187 -5 21 C-5.66 24.3 -6.32 27.6 -7 31 C-3.15257571 31.46270797 -3.15257571 31.46270797 -1.5859375 29.63671875 C2.16388175 23.60071937 4.53266666 17.0603333 3.7734375 9.84765625 C2.94877208 6.54200587 1.89814959 3.86309617 -1 2 C-5.95422887 0.45868435 -8.6976579 1.16436543 -13 4 Z " fill="#F3AC97" transform="translate(106,40)"/>
</svg>
